<svg width="220" height="40" viewBox="0 0 220 40" fill="none" xmlns="http://www.w3.org/2000/svg">
<path d="M56.3433 33.2844H46.9444V6.77034H56.421C59.0879 6.77034 61.3837 7.30114 63.3083 8.36274C65.233 9.4157 66.7132 10.9304 67.7489 12.9069C68.7932 14.8834 69.3154 17.2482 69.3154 20.0015C69.3154 22.7634 68.7932 25.1369 67.7489 27.122C66.7132 29.1071 65.2244 30.6304 63.2824 31.692C61.3491 32.7536 59.0361 33.2844 56.3433 33.2844ZM52.55 28.4813H56.1102C57.7674 28.4813 59.1612 28.1879 60.2919 27.601C61.4311 27.0054 62.2856 26.0863 62.8552 24.8434C63.4335 23.5919 63.7226 21.978 63.7226 20.0015C63.7226 18.0423 63.4335 16.4412 62.8552 15.1984C62.2856 13.9555 61.4354 13.0407 60.3048 12.4538C59.1742 11.8669 57.7803 11.5734 56.1232 11.5734H52.55V28.4813Z" fill="#006156"/>
<path d="M71.5415 33.2844V13.3989H76.8882V16.8685H77.0954C77.4579 15.6343 78.0663 14.7021 78.9208 14.0721C79.7752 13.4334 80.7591 13.114 81.8725 13.114C82.1487 13.114 82.4465 13.1313 82.7658 13.1658C83.0851 13.2003 83.3656 13.2478 83.6073 13.3082V18.2019C83.3484 18.1243 82.9902 18.0552 82.5328 17.9948C82.0753 17.9344 81.6567 17.9042 81.277 17.9042C80.4657 17.9042 79.7407 18.0811 79.102 18.435C78.472 18.7802 77.9714 19.2635 77.6003 19.885C77.2378 20.5064 77.0565 21.2228 77.0565 22.0341V33.2844H71.5415Z" fill="#006156"/>
<path d="M85.365 33.2844V13.3989H90.8801V33.2844H85.365ZM88.1355 10.8355C87.3156 10.8355 86.6121 10.5636 86.0253 10.0199C85.447 9.46749 85.1579 8.80723 85.1579 8.03908C85.1579 7.27956 85.447 6.62793 86.0253 6.08418C86.6121 5.5318 87.3156 5.25562 88.1355 5.25562C88.9554 5.25562 89.6545 5.5318 90.2328 6.08418C90.8197 6.62793 91.1131 7.27956 91.1131 8.03908C91.1131 8.80723 90.8197 9.46749 90.2328 10.0199C89.6545 10.5636 88.9554 10.8355 88.1355 10.8355Z" fill="#006156"/>
<path d="M112.014 13.3989L105.062 33.2844H98.8478L91.8957 13.3989H97.7215L101.851 27.6269H102.058L106.175 13.3989H112.014Z" fill="#006156"/>
<path d="M121.435 33.6728C119.39 33.6728 117.629 33.2585 116.153 32.43C114.686 31.5928 113.555 30.4103 112.761 28.8827C111.967 27.3464 111.57 25.5296 111.57 23.4323C111.57 21.3867 111.967 19.5915 112.761 18.0466C113.555 16.5017 114.673 15.2977 116.114 14.4346C117.564 13.5715 119.264 13.1399 121.215 13.1399C122.527 13.1399 123.748 13.3514 124.879 13.7743C126.018 14.1886 127.01 14.8143 127.856 15.6515C128.711 16.4887 129.375 17.5417 129.85 18.8104C130.325 20.0705 130.562 21.5464 130.562 23.2381V24.7528H117.021V21.335H125.371C125.371 20.5409 125.198 19.8375 124.853 19.2247C124.508 18.6119 124.029 18.1329 123.416 17.7877C122.812 17.4338 122.108 17.2569 121.306 17.2569C120.468 17.2569 119.726 17.4511 119.079 17.8394C118.44 18.2192 117.94 18.7327 117.577 19.3801C117.215 20.0187 117.029 20.7308 117.02 21.5162V24.7657C117.02 25.7497 117.202 26.5998 117.564 27.3162C117.935 28.0325 118.457 28.5849 119.131 28.9733C119.804 29.3617 120.602 29.5559 121.526 29.5559C122.138 29.5559 122.699 29.4696 123.209 29.2969C123.718 29.1243 124.154 28.8654 124.516 28.5202C124.879 28.1749 125.155 27.752 125.345 27.2514L130.446 27.588C130.187 28.8136 129.656 29.8839 128.853 30.7987C128.059 31.705 127.032 32.4127 125.772 32.9219C124.521 33.4225 123.075 33.6728 121.435 33.6728Z" fill="#006156"/>
<path d="M133.748 6.77034H137.58L146.591 28.7791H146.901L155.912 6.77034H159.744V33.2844H156.74V13.1399H156.481L148.196 33.2844H145.296L137.01 13.1399H136.752V33.2844H133.748V6.77034Z" fill="#00A08D"/>
<path d="M172.023 33.6987C170.228 33.6987 168.652 33.2715 167.297 32.417C165.951 31.5626 164.898 30.3672 164.139 28.8309C163.388 27.2946 163.012 25.4994 163.012 23.4452C163.012 21.3738 163.388 19.5656 164.139 18.0207C164.898 16.4758 165.951 15.2761 167.297 14.4216C168.652 13.5672 170.228 13.1399 172.023 13.1399C173.818 13.1399 175.389 13.5672 176.735 14.4216C178.09 15.2761 179.143 16.4758 179.894 18.0207C180.654 19.5656 181.033 21.3738 181.033 23.4452C181.033 25.4994 180.654 27.2946 179.894 28.8309C179.143 30.3672 178.09 31.5626 176.735 32.417C175.389 33.2715 173.818 33.6987 172.023 33.6987ZM172.023 30.9541C173.386 30.9541 174.508 30.6045 175.389 29.9054C176.269 29.2063 176.921 28.2871 177.344 27.1479C177.767 26.0086 177.978 24.7744 177.978 23.4452C177.978 22.1161 177.767 20.8775 177.344 19.7296C176.921 18.5817 176.269 17.6539 175.389 16.9462C174.508 16.2384 173.386 15.8846 172.023 15.8846C170.659 15.8846 169.537 16.2384 168.657 16.9462C167.776 17.6539 167.125 18.5817 166.702 19.7296C166.279 20.8775 166.067 22.1161 166.067 23.4452C166.067 24.7744 166.279 26.0086 166.702 27.1479C167.125 28.2871 167.776 29.2063 168.657 29.9054C169.537 30.6045 170.659 30.9541 172.023 30.9541Z" fill="#00A08D"/>
<path d="M186.93 21.322V33.2844H183.874V13.3989H186.826V16.506H187.085C187.551 15.4962 188.259 14.6849 189.208 14.0721C190.158 13.4506 191.383 13.1399 192.885 13.1399C194.231 13.1399 195.409 13.4161 196.419 13.9685C197.429 14.5122 198.214 15.3408 198.775 16.4542C199.336 17.5589 199.617 18.9571 199.617 20.6488V33.2844H196.562V20.8559C196.562 19.2938 196.156 18.0768 195.345 17.2051C194.533 16.3247 193.42 15.8846 192.005 15.8846C191.029 15.8846 190.158 16.096 189.389 16.5189C188.63 16.9418 188.03 17.5589 187.59 18.3702C187.15 19.1816 186.93 20.1655 186.93 21.322Z" fill="#00A08D"/>
<path d="M210.886 33.6987C209.229 33.6987 207.766 33.2801 206.497 32.4429C205.228 31.5971 204.236 30.406 203.52 28.8697C202.803 27.3248 202.445 25.4994 202.445 23.3934C202.445 21.3047 202.803 19.4923 203.52 17.956C204.236 16.4197 205.233 15.2329 206.51 14.3957C207.787 13.5585 209.263 13.1399 210.938 13.1399C212.232 13.1399 213.255 13.3557 214.006 13.7872C214.765 14.2102 215.344 14.6935 215.741 15.2372C216.146 15.7724 216.461 16.2125 216.686 16.5578H216.945V6.77034H220V33.2844H217.048V30.2291H216.686C216.461 30.5916 216.142 31.049 215.728 31.6014C215.313 32.1451 214.722 32.6328 213.954 33.0643C213.186 33.4872 212.163 33.6987 210.886 33.6987ZM211.3 30.9541C212.526 30.9541 213.561 30.6347 214.407 29.9961C215.253 29.3487 215.896 28.4554 216.336 27.3162C216.776 26.1683 216.996 24.8434 216.996 23.3416C216.996 21.8571 216.781 20.5582 216.349 19.4448C215.918 18.3228 215.279 17.4511 214.433 16.8296C213.587 16.1996 212.543 15.8846 211.3 15.8846C210.006 15.8846 208.927 16.2168 208.064 16.8814C207.209 17.5374 206.566 18.4307 206.135 19.5613C205.712 20.6833 205.5 21.9434 205.5 23.3416C205.5 24.7571 205.716 26.0431 206.148 27.1996C206.588 28.3476 207.235 29.2624 208.089 29.9443C208.953 30.6175 210.023 30.9541 211.3 30.9541Z" fill="#00A08D"/>
<path d="M17.9424 0C24.3659 2.18928e-05 28.6632 2.01434 30.834 6.04297C32.2516 8.72886 32.9609 13.3737 32.9609 19.9766C32.9609 26.5792 32.2516 31.2233 30.834 33.9092C28.6632 37.938 24.3661 39.9531 17.9424 39.9531H5C2.23871 39.9531 0.000214064 37.7144 0 34.9531L0 5C0 2.23858 2.23858 0 5 0L17.9424 0Z" fill="#00A08D"/>
<path d="M26.7272 17.3175H24.0937L23.8106 16.5348L23.3569 15.3042C23.196 14.912 23.0336 14.5215 22.752 14.1727C21.864 12.812 20.4017 11.9858 18.7769 11.9858H13.1801C11.5666 11.9858 10.1027 12.8137 9.21625 14.1727C8.92347 14.5215 8.76259 14.912 8.60011 15.3042L7.87458 17.3175H5.2411C4.86788 17.3175 4.62496 17.623 4.70701 18.0256L4.94831 19.1572C5.02875 19.4175 5.2411 19.5928 5.48241 19.5928H6.37042C5.76555 20.1152 5.40197 20.9535 5.40197 21.8682V24.1435C5.40197 24.9384 5.68511 25.6343 6.08729 26.1567L6.08729 28.7358C6.08729 28.774 6.08729 28.8121 6.09212 28.8486C6.14038 29.489 6.66482 29.9646 7.26005 29.9646H9.17121C9.76644 29.9646 10.2909 29.4873 10.3391 28.8486C10.3424 28.8104 10.344 28.774 10.344 28.7358V27.212L21.6131 27.212V28.7358C21.6131 28.7757 21.6147 28.8156 21.6179 28.8538C21.6694 29.4908 22.1922 29.9646 22.7858 29.9646H24.697C25.2922 29.9646 25.8167 29.4873 25.8649 28.8486C25.8681 28.8104 25.8697 28.774 25.8697 28.7358V26.1567C26.2832 25.6343 26.5663 24.9384 26.5663 24.1435L26.5663 21.8682C26.5663 20.9535 26.2027 20.1152 25.5882 19.5928H26.4859C26.7272 19.5928 26.9299 19.4193 27.0103 19.1572L27.2532 18.0256C27.3337 17.623 27.0924 17.3175 26.7288 17.3175H26.7272ZM8.92347 24.14C8.80281 24.14 8.72238 24.14 8.60011 24.0532C7.95502 23.9665 7.51101 23.4007 7.51101 22.6162C7.51101 21.8317 7.95502 21.2989 8.60011 21.1687C8.72077 21.1253 8.8012 21.1253 8.92347 21.1253C9.78091 21.1253 11.0325 22.486 11.0325 23.4007C11.0325 24.3153 9.78091 24.14 8.92347 24.14ZM23.8122 23.8797C23.5998 24.0532 23.3183 24.14 23.0352 24.14C22.1874 24.14 20.9261 24.2702 20.9261 23.4007C20.9261 22.486 22.1874 21.1253 23.0352 21.1253C23.3183 21.1253 23.5998 21.2121 23.8122 21.3423C24.216 21.5592 24.4573 21.9948 24.4573 22.6162C24.4573 23.2375 24.216 23.661 23.8122 23.8779V23.8797Z" fill="white"/>
</svg>
